<?xml version="1.0" encoding="UTF-8"?><svg id="Layer_1" xmlns="http://www.w3.org/2000/svg" viewBox="0 0 2500 480"><defs><style>.cls-1{fill:#3d4a6c;}.cls-1,.cls-2,.cls-3,.cls-4,.cls-5,.cls-6,.cls-7,.cls-8,.cls-9,.cls-10,.cls-11,.cls-12,.cls-13,.cls-14,.cls-15,.cls-16,.cls-17{stroke-width:0px;}.cls-2{fill:#c2e6ea;}.cls-3{fill:#3c4a6b;}.cls-4{fill:#f15c46;}.cls-5{fill:#dce3ef;}.cls-6{fill:#808898;}.cls-7{fill:#fff;}.cls-8{fill:#73b269;}.cls-9{fill:#fcbe24;}.cls-10{fill:#565d64;}.cls-11{fill:#132b56;}.cls-12{fill:#439ca5;}.cls-13{fill:#9fd299;}.cls-14{fill:#e4e7ed;}.cls-15{fill:#f1efe3;}.cls-16{fill:#b79b69;}.cls-17{fill:#4cbcce;}</style></defs><rect class="cls-15" x="0" width="2500" height="480"/><rect class="cls-3" x="701.388" y="117.788" width="196.86" height="362.212"/><rect class="cls-5" x="729.305" y="186.067" width="33.82" height="33.82"/><rect class="cls-5" x="782.907" y="186.067" width="33.82" height="33.82"/><rect class="cls-5" x="836.509" y="186.067" width="33.82" height="33.82"/><rect class="cls-5" x="729.305" y="237.116" width="33.82" height="33.82"/><rect class="cls-5" x="782.907" y="237.116" width="33.82" height="33.82"/><rect class="cls-5" x="836.509" y="237.116" width="33.82" height="33.82"/><rect class="cls-5" x="729.305" y="186.067" width="33.82" height="33.82"/><rect class="cls-5" x="782.907" y="186.067" width="33.82" height="33.82"/><rect class="cls-5" x="836.509" y="186.067" width="33.82" height="33.82"/><rect class="cls-5" x="729.305" y="135.017" width="33.82" height="33.82"/><rect class="cls-5" x="782.907" y="135.017" width="33.82" height="33.82"/><rect class="cls-5" x="836.509" y="135.017" width="33.82" height="33.82"/><rect class="cls-5" x="729.305" y="288.166" width="33.82" height="33.82"/><rect class="cls-5" x="782.907" y="288.166" width="33.82" height="33.82"/><rect class="cls-5" x="836.509" y="288.166" width="33.82" height="33.82"/><rect class="cls-5" x="729.305" y="339.215" width="33.82" height="33.82"/><rect class="cls-5" x="782.907" y="339.215" width="33.82" height="33.82"/><rect class="cls-5" x="836.509" y="339.215" width="33.82" height="33.82"/><rect class="cls-5" x="729.305" y="390.265" width="33.82" height="33.82"/><rect class="cls-5" x="782.907" y="390.265" width="33.82" height="33.82"/><rect class="cls-5" x="836.509" y="390.265" width="33.82" height="33.82"/><rect class="cls-5" x="836.509" y="442.802" width="33.82" height="27.227"/><rect class="cls-5" x="729.305" y="442.802" width="33.82" height="27.227"/><rect class="cls-11" x="784.714" y="442.802" width="30.206" height="37.198"/><rect class="cls-6" x="835.572" y="59.719" width="196.86" height="420.281"/><rect class="cls-14" x="863.49" y="186.067" width="33.82" height="33.82"/><rect class="cls-14" x="917.092" y="186.067" width="33.82" height="33.82"/><rect class="cls-14" x="970.694" y="186.067" width="33.82" height="33.82"/><rect class="cls-14" x="863.49" y="237.116" width="33.82" height="33.82"/><rect class="cls-14" x="917.092" y="237.116" width="33.82" height="33.82"/><rect class="cls-14" x="970.694" y="237.116" width="33.82" height="33.82"/><rect class="cls-14" x="863.49" y="186.067" width="33.82" height="33.82"/><rect class="cls-14" x="917.092" y="186.067" width="33.82" height="33.82"/><rect class="cls-14" x="970.694" y="186.067" width="33.82" height="33.82"/><rect class="cls-14" x="863.49" y="135.017" width="33.82" height="33.82"/><rect class="cls-14" x="917.092" y="135.017" width="33.82" height="33.82"/><rect class="cls-14" x="970.694" y="135.017" width="33.82" height="33.82"/><rect class="cls-14" x="863.49" y="83.968" width="33.82" height="33.82"/><rect class="cls-14" x="917.092" y="83.968" width="33.82" height="33.82"/><rect class="cls-14" x="970.694" y="83.968" width="33.82" height="33.82"/><rect class="cls-14" x="863.49" y="288.166" width="33.82" height="33.82"/><rect class="cls-14" x="917.092" y="288.166" width="33.82" height="33.82"/><rect class="cls-14" x="970.694" y="288.166" width="33.82" height="33.82"/><rect class="cls-14" x="863.49" y="339.215" width="33.82" height="33.82"/><rect class="cls-14" x="917.092" y="339.215" width="33.82" height="33.82"/><rect class="cls-14" x="970.694" y="339.215" width="33.82" height="33.82"/><rect class="cls-14" x="863.49" y="390.265" width="33.82" height="33.82"/><rect class="cls-14" x="917.092" y="390.265" width="33.82" height="33.82"/><rect class="cls-14" x="970.694" y="390.265" width="33.82" height="33.82"/><rect class="cls-14" x="970.694" y="442.802" width="33.82" height="27.227"/><rect class="cls-14" x="863.49" y="442.802" width="33.82" height="27.227"/><rect class="cls-10" x="918.899" y="442.802" width="30.206" height="37.198"/><rect class="cls-9" x="1104.515" y="117.788" width="196.86" height="362.212"/><rect class="cls-15" x="1132.433" y="186.067" width="33.82" height="33.82"/><rect class="cls-15" x="1186.035" y="186.067" width="33.82" height="33.82"/><rect class="cls-15" x="1239.637" y="186.067" width="33.82" height="33.82"/><rect class="cls-15" x="1132.433" y="237.116" width="33.82" height="33.82"/><rect class="cls-15" x="1186.035" y="237.116" width="33.82" height="33.82"/><rect class="cls-15" x="1239.637" y="237.116" width="33.82" height="33.82"/><rect class="cls-15" x="1132.433" y="186.067" width="33.82" height="33.82"/><rect class="cls-15" x="1186.035" y="186.067" width="33.82" height="33.82"/><rect class="cls-15" x="1239.637" y="186.067" width="33.82" height="33.82"/><rect class="cls-15" x="1132.433" y="135.017" width="33.82" height="33.82"/><rect class="cls-15" x="1186.035" y="135.017" width="33.82" height="33.82"/><rect class="cls-15" x="1239.637" y="135.017" width="33.82" height="33.82"/><rect class="cls-15" x="1132.433" y="288.166" width="33.82" height="33.82"/><rect class="cls-15" x="1186.035" y="288.166" width="33.82" height="33.82"/><rect class="cls-15" x="1239.637" y="288.166" width="33.82" height="33.82"/><rect class="cls-15" x="1132.433" y="339.215" width="33.82" height="33.82"/><rect class="cls-15" x="1186.035" y="339.215" width="33.82" height="33.82"/><rect class="cls-15" x="1239.637" y="339.215" width="33.82" height="33.82"/><rect class="cls-15" x="1132.433" y="390.265" width="33.82" height="33.82"/><rect class="cls-15" x="1186.035" y="390.265" width="33.82" height="33.82"/><rect class="cls-15" x="1239.637" y="390.265" width="33.82" height="33.82"/><rect class="cls-15" x="1239.637" y="442.802" width="33.82" height="27.227"/><rect class="cls-15" x="1132.433" y="442.802" width="33.82" height="27.227"/><rect class="cls-16" x="1187.842" y="442.802" width="30.206" height="37.198"/><rect class="cls-17" x="969.905" y="162.795" width="196.86" height="317.205"/><rect class="cls-2" x="997.823" y="186.067" width="33.82" height="33.82"/><rect class="cls-2" x="1051.425" y="186.067" width="33.82" height="33.82"/><rect class="cls-2" x="1105.027" y="186.067" width="33.82" height="33.82"/><rect class="cls-2" x="997.823" y="237.116" width="33.82" height="33.82"/><rect class="cls-2" x="1051.425" y="237.116" width="33.82" height="33.82"/><rect class="cls-2" x="1105.027" y="237.116" width="33.82" height="33.82"/><rect class="cls-2" x="997.823" y="288.166" width="33.82" height="33.82"/><rect class="cls-2" x="1051.425" y="288.166" width="33.82" height="33.82"/><rect class="cls-2" x="1105.027" y="288.166" width="33.82" height="33.82"/><rect class="cls-2" x="997.823" y="339.215" width="33.82" height="33.82"/><rect class="cls-2" x="1051.425" y="339.215" width="33.82" height="33.82"/><rect class="cls-2" x="1105.027" y="339.215" width="33.82" height="33.82"/><rect class="cls-2" x="997.823" y="390.265" width="33.82" height="33.82"/><rect class="cls-2" x="1051.425" y="390.265" width="33.82" height="33.82"/><rect class="cls-2" x="1105.027" y="390.265" width="33.82" height="33.82"/><rect class="cls-2" x="1105.027" y="442.802" width="33.82" height="27.227"/><rect class="cls-2" x="997.823" y="442.802" width="33.82" height="27.227"/><rect class="cls-12" x="1053.232" y="442.802" width="30.206" height="37.198"/><circle class="cls-4" cx="1068.335" cy="123.212" r="39.244"/><path class="cls-7" d="m1042.172,123.212c0,3.348,2.714,6.062,6.062,6.062h40.201c3.348,0,6.062-2.715,6.062-6.062h0c0-3.348-2.715-6.062-6.062-6.062h-40.201c-3.348,0-6.062,2.714-6.062,6.062h0Z"/><path class="cls-7" d="m1068.335,149.375c3.348,0,6.062-2.715,6.062-6.062v-40.201c0-3.348-2.715-6.062-6.062-6.062h0c-3.348,0-6.062,2.714-6.062,6.062v40.201c0,3.348,2.714,6.062,6.062,6.062h0Z"/><rect class="cls-16" x="1320.287" y="405.604" width="8.296" height="74.396"/><circle class="cls-13" cx="1324.434" cy="387.642" r="44.668"/><rect class="cls-16" x="1250.388" y="435.504" width="8.296" height="44.496"/><path class="cls-8" d="m1281.877,423.467c0,15.1-12.241,27.344-27.342,27.344s-27.342-12.244-27.342-27.344,12.241-27.34,27.342-27.34,27.342,12.239,27.342,27.34Z"/><rect class="cls-16" x="681.428" y="415.605" width="7.181" height="64.395"/><circle class="cls-8" cx="685.019" cy="400.058" r="38.663" transform="translate(-82.247 601.556) rotate(-45)"/><path class="cls-4" d="m1390.833,273.411h-5.51c-.619,0-1.122-.154-1.51-.464-.389-.309-.68-.692-.874-1.152l-2.861-7.814h-15.868l-2.861,7.814c-.142.406-.415.777-.821,1.113-.406.335-.91.503-1.51.503h-5.563l15.074-38.307h7.259l15.047,38.307Zm-12.583-14.465l-4.663-12.742c-.23-.564-.468-1.236-.715-2.014-.248-.776-.495-1.615-.742-2.517-.23.901-.468,1.744-.715,2.53-.248.786-.486,1.471-.715,2.053l-4.636,12.689h12.186Z"/><path class="cls-4" d="m1408.767,249.145c1.06-.988,2.225-1.792,3.497-2.41,1.271-.618,2.764-.928,4.477-.928,1.483,0,2.799.252,3.947.755,1.148.504,2.106,1.21,2.874,2.12.769.909,1.351,1.995,1.749,3.258s.596,2.654.596,4.173v17.299h-6.543v-17.299c0-1.66-.38-2.945-1.139-3.854-.759-.91-1.917-1.364-3.47-1.364-1.13,0-2.19.256-3.179.768-.989.513-1.925,1.21-2.808,2.093v19.657h-6.543v-39.366h6.543v15.1Z"/><path class="cls-4" d="m1435.815,260.643c.106,1.395.353,2.601.742,3.615.388,1.017.9,1.854,1.536,2.518.636.662,1.391,1.156,2.265,1.483.875.327,1.841.49,2.901.49s1.974-.124,2.742-.371c.768-.247,1.439-.521,2.013-.821.574-.3,1.077-.574,1.51-.821s.852-.371,1.259-.371c.547,0,.954.203,1.218.609l1.881,2.384c-.724.849-1.536,1.56-2.437,2.133-.901.574-1.841,1.033-2.821,1.378-.98.345-1.979.587-2.994.729-1.016.141-2,.212-2.954.212-1.89,0-3.647-.313-5.272-.94-1.625-.627-3.038-1.554-4.239-2.781-1.201-1.228-2.146-2.746-2.834-4.557-.689-1.811-1.033-3.908-1.033-6.292,0-1.854.3-3.599.9-5.232.601-1.633,1.461-3.055,2.583-4.265s2.49-2.168,4.106-2.875c1.616-.706,3.439-1.06,5.471-1.06,1.712,0,3.293.274,4.742.821,1.448.548,2.693,1.347,3.735,2.397s1.858,2.341,2.451,3.868c.591,1.527.887,3.271.887,5.231,0,.989-.106,1.656-.318,2.001-.212.344-.618.517-1.219.517h-16.822Zm12.478-3.947c0-.849-.12-1.647-.358-2.397-.238-.751-.596-1.408-1.073-1.974-.477-.565-1.082-1.012-1.815-1.338-.733-.327-1.585-.49-2.556-.49-1.89,0-3.378.539-4.464,1.616-1.086,1.077-1.78,2.604-2.08,4.583h12.345Z"/><path class="cls-4" d="m1457.114,250.019c3.126-2.86,6.888-4.291,11.286-4.291,1.589,0,3.011.261,4.265.781,1.253.521,2.313,1.245,3.179,2.173.865.927,1.523,2.035,1.974,3.324.451,1.289.676,2.702.676,4.238v17.167h-2.967c-.618,0-1.095-.093-1.431-.278s-.601-.561-.794-1.126l-.583-1.96c-.688.618-1.36,1.161-2.013,1.629-.654.469-1.334.861-2.04,1.179-.707.318-1.461.561-2.265.729s-1.691.252-2.662.252c-1.148,0-2.208-.154-3.179-.464-.972-.309-1.811-.772-2.517-1.391-.707-.618-1.254-1.386-1.643-2.305-.389-.918-.583-1.987-.583-3.205,0-.689.115-1.373.345-2.054.229-.68.604-1.328,1.126-1.947.521-.617,1.196-1.2,2.026-1.748.83-.547,1.85-1.024,3.06-1.431,1.209-.406,2.618-.737,4.225-.993s3.444-.411,5.51-.464v-1.59c0-1.818-.389-3.165-1.166-4.04-.777-.874-1.898-1.311-3.364-1.311-1.06,0-1.938.123-2.636.37-.698.248-1.311.526-1.841.835-.53.31-1.011.587-1.444.834-.433.248-.914.371-1.444.371-.459,0-.848-.119-1.166-.357s-.574-.517-.769-.834l-1.166-2.094Zm14.994,11.789c-1.89.089-3.479.252-4.769.49s-2.322.543-3.099.914c-.777.371-1.334.804-1.669,1.298-.336.495-.503,1.033-.503,1.616,0,1.148.34,1.97,1.02,2.464s1.567.741,2.663.741c1.342,0,2.503-.242,3.484-.729.98-.485,1.938-1.223,2.874-2.212v-4.583Z"/><path class="cls-4" d="m1489.937,234.045v39.366h-6.543v-39.366h6.543Z"/><path class="cls-4" d="m1504.215,273.835c-2.367,0-4.182-.666-5.444-2-1.263-1.333-1.894-3.175-1.894-5.523v-15.18h-2.782c-.354,0-.654-.115-.901-.345-.248-.229-.371-.573-.371-1.033v-2.596l4.371-.716,1.377-7.417c.088-.354.256-.627.503-.821.247-.194.565-.292.954-.292h3.391v8.557h7.259v4.663h-7.259v14.729c0,.848.207,1.51.623,1.986.415.478.984.716,1.708.716.406,0,.746-.049,1.02-.146.273-.097.512-.198.715-.304.203-.106.384-.208.543-.305.159-.098.318-.146.477-.146.194,0,.353.049.477.146.124.097.256.242.397.437l1.96,3.179c-.954.795-2.049,1.396-3.285,1.802s-2.517.609-3.841.609Z"/><path class="cls-4" d="m1520.083,249.145c1.06-.988,2.225-1.792,3.497-2.41,1.271-.618,2.764-.928,4.477-.928,1.483,0,2.799.252,3.947.755,1.148.504,2.106,1.21,2.874,2.12.769.909,1.351,1.995,1.749,3.258s.596,2.654.596,4.173v17.299h-6.543v-17.299c0-1.66-.38-2.945-1.139-3.854-.759-.91-1.917-1.364-3.47-1.364-1.13,0-2.19.256-3.179.768-.989.513-1.925,1.21-2.808,2.093v19.657h-6.543v-39.366h6.543v15.1Z"/><path class="cls-4" d="m1566.046,246.23l-14.809,34.651c-.194.459-.446.808-.755,1.046-.309.239-.782.358-1.417.358h-4.875l5.086-10.915-10.994-25.141h5.749c.512,0,.914.124,1.205.371.292.247.508.53.649.848l5.775,14.094c.194.477.358.953.49,1.431.132.477.26.963.384,1.457.159-.494.318-.984.477-1.471.159-.485.335-.967.53-1.443l5.458-14.067c.141-.353.375-.645.702-.874.327-.229.693-.345,1.099-.345h5.246Z"/><path class="cls-4" d="m1597.677,251.979c-.194.247-.384.441-.569.583s-.455.212-.808.212c-.335,0-.662-.102-.98-.305s-.698-.433-1.139-.689c-.442-.256-.967-.485-1.576-.688s-1.364-.305-2.265-.305c-1.148,0-2.155.208-3.02.623-.866.415-1.585,1.011-2.159,1.788-.574.777-1.002,1.718-1.285,2.821-.283,1.104-.424,2.354-.424,3.748,0,1.448.154,2.738.463,3.868.309,1.131.755,2.079,1.338,2.848s1.289,1.352,2.119,1.749c.83.396,1.766.596,2.808.596s1.885-.128,2.53-.384c.645-.256,1.188-.539,1.629-.848.441-.31.826-.592,1.152-.849.327-.256.693-.384,1.1-.384.53,0,.927.203,1.192.609l1.881,2.384c-.725.849-1.51,1.56-2.358,2.133-.848.574-1.727,1.033-2.636,1.378-.91.345-1.846.587-2.808.729-.963.141-1.921.212-2.875.212-1.678,0-3.258-.313-4.742-.94-1.483-.627-2.782-1.541-3.894-2.742-1.113-1.2-1.992-2.671-2.636-4.411-.645-1.739-.967-3.722-.967-5.947,0-1.995.287-3.845.861-5.55.574-1.704,1.417-3.179,2.53-4.424,1.112-1.245,2.49-2.221,4.132-2.928,1.643-.706,3.532-1.06,5.669-1.06,2.031,0,3.81.327,5.338.98s2.901,1.59,4.12,2.808l-1.722,2.385Z"/><path class="cls-4" d="m1613.97,245.807c2.013,0,3.845.327,5.497.98,1.651.653,3.064,1.581,4.239,2.781,1.174,1.201,2.08,2.667,2.715,4.397.636,1.731.954,3.665.954,5.802,0,2.155-.318,4.098-.954,5.828-.636,1.731-1.541,3.206-2.715,4.425-1.175,1.219-2.588,2.154-4.239,2.808-1.652.653-3.484.98-5.497.98-2.031,0-3.877-.327-5.537-.98-1.661-.653-3.078-1.589-4.252-2.808-1.175-1.219-2.084-2.693-2.729-4.425-.645-1.73-.967-3.673-.967-5.828,0-2.137.322-4.07.967-5.802.645-1.73,1.554-3.196,2.729-4.397,1.174-1.2,2.591-2.128,4.252-2.781,1.66-.653,3.505-.98,5.537-.98Zm0,22.969c2.26,0,3.934-.76,5.02-2.278,1.086-1.519,1.629-3.744,1.629-6.676s-.543-5.166-1.629-6.703c-1.086-1.536-2.76-2.305-5.02-2.305-2.296,0-3.996.773-5.1,2.318-1.104,1.546-1.656,3.775-1.656,6.689s.552,5.135,1.656,6.662c1.104,1.528,2.803,2.292,5.1,2.292Z"/><path class="cls-4" d="m1631.057,273.411v-27.181h4c.848,0,1.404.397,1.669,1.192l.424,2.014c.477-.53.976-1.016,1.497-1.457s1.077-.821,1.669-1.14c.592-.317,1.228-.569,1.908-.755.68-.186,1.426-.278,2.238-.278,1.713,0,3.122.464,4.226,1.391,1.104.928,1.929,2.159,2.477,3.696.424-.901.954-1.674,1.589-2.318s1.333-1.17,2.093-1.576c.759-.406,1.567-.706,2.424-.9s1.718-.292,2.583-.292c1.501,0,2.835.229,4,.688,1.166.46,2.146,1.131,2.94,2.014.795.884,1.399,1.961,1.815,3.232.415,1.271.622,2.729.622,4.371v17.299h-6.543v-17.299c0-1.73-.38-3.033-1.139-3.908-.76-.874-1.873-1.311-3.338-1.311-.671,0-1.294.114-1.868.344-.574.23-1.077.562-1.51.994-.433.433-.773.976-1.02,1.629-.248.653-.371,1.404-.371,2.252v17.299h-6.57v-17.299c0-1.819-.367-3.144-1.099-3.974-.733-.83-1.806-1.245-3.219-1.245-.954,0-1.841.234-2.663.702s-1.585,1.108-2.292,1.92v19.896h-6.543Z"/><path class="cls-4" d="m1674.105,273.411v-27.181h4c.848,0,1.404.397,1.669,1.192l.424,2.014c.477-.53.976-1.016,1.497-1.457s1.077-.821,1.669-1.14c.592-.317,1.228-.569,1.908-.755.68-.186,1.426-.278,2.238-.278,1.713,0,3.122.464,4.226,1.391,1.104.928,1.929,2.159,2.477,3.696.424-.901.954-1.674,1.589-2.318s1.333-1.17,2.093-1.576c.759-.406,1.567-.706,2.424-.9s1.718-.292,2.583-.292c1.501,0,2.835.229,4,.688,1.166.46,2.146,1.131,2.94,2.014.795.884,1.399,1.961,1.815,3.232.415,1.271.622,2.729.622,4.371v17.299h-6.543v-17.299c0-1.73-.38-3.033-1.139-3.908-.76-.874-1.873-1.311-3.338-1.311-.671,0-1.294.114-1.868.344-.574.23-1.077.562-1.51.994-.433.433-.773.976-1.02,1.629-.248.653-.371,1.404-.371,2.252v17.299h-6.57v-17.299c0-1.819-.367-3.144-1.099-3.974-.733-.83-1.806-1.245-3.219-1.245-.954,0-1.841.234-2.663.702s-1.585,1.108-2.292,1.92v19.896h-6.543Z"/><path class="cls-4" d="m1740.573,246.23v27.181h-4c-.866,0-1.413-.397-1.643-1.192l-.45-2.172c-1.113,1.13-2.34,2.044-3.683,2.742-1.342.697-2.923,1.046-4.742,1.046-1.484,0-2.795-.252-3.934-.755-1.139-.504-2.098-1.214-2.875-2.133-.777-.918-1.364-2.009-1.762-3.271s-.596-2.653-.596-4.173v-17.272h6.543v17.272c0,1.66.384,2.945,1.152,3.854.768.91,1.92,1.364,3.457,1.364,1.13,0,2.189-.251,3.179-.755.989-.503,1.925-1.196,2.809-2.079v-19.657h6.543Z"/><path class="cls-4" d="m1751.832,249.568c.547-.547,1.126-1.055,1.735-1.523.609-.468,1.253-.864,1.934-1.191.68-.327,1.408-.583,2.186-.769s1.625-.278,2.543-.278c1.483,0,2.799.252,3.947.755,1.148.504,2.106,1.21,2.874,2.12.769.909,1.351,1.995,1.749,3.258s.596,2.654.596,4.173v17.299h-6.543v-17.299c0-1.66-.38-2.945-1.139-3.854-.759-.91-1.917-1.364-3.47-1.364-1.13,0-2.19.256-3.179.768-.989.513-1.925,1.21-2.808,2.093v19.657h-6.543v-27.181h4c.848,0,1.404.397,1.669,1.192l.45,2.146Z"/><path class="cls-4" d="m1781.952,238.31c0,.565-.115,1.096-.344,1.59-.23.494-.535.927-.914,1.298-.38.371-.826.667-1.338.888s-1.06.331-1.643.331c-.565,0-1.099-.11-1.603-.331s-.94-.517-1.312-.888c-.371-.371-.667-.804-.887-1.298-.221-.494-.332-1.024-.332-1.59,0-.583.11-1.13.332-1.643.221-.512.517-.953.887-1.324.371-.371.808-.667,1.312-.888s1.037-.331,1.603-.331c.583,0,1.13.11,1.643.331s.958.517,1.338.888c.379.371.684.812.914,1.324.229.513.344,1.06.344,1.643Zm-.901,7.921v27.181h-6.57v-27.181h6.57Z"/><path class="cls-4" d="m1795.463,273.835c-2.367,0-4.182-.666-5.444-2-1.263-1.333-1.894-3.175-1.894-5.523v-15.18h-2.782c-.354,0-.654-.115-.901-.345-.248-.229-.371-.573-.371-1.033v-2.596l4.371-.716,1.377-7.417c.088-.354.256-.627.503-.821.247-.194.565-.292.954-.292h3.391v8.557h7.258v4.663h-7.258v14.729c0,.848.207,1.51.623,1.986.415.478.984.716,1.708.716.406,0,.746-.049,1.02-.146.273-.097.512-.198.715-.304.203-.106.384-.208.543-.305.159-.098.318-.146.477-.146.194,0,.353.049.477.146.124.097.256.242.397.437l1.96,3.179c-.953.795-2.048,1.396-3.285,1.802s-2.517.609-3.841.609Z"/><path class="cls-4" d="m1829.478,246.23l-14.809,34.651c-.194.459-.446.808-.755,1.046-.31.239-.781.358-1.417.358h-4.875l5.087-10.915-10.994-25.141h5.748c.513,0,.914.124,1.206.371.291.247.507.53.648.848l5.775,14.094c.194.477.357.953.49,1.431.133.477.261.963.384,1.457.159-.494.318-.984.478-1.471.158-.485.335-.967.529-1.443l5.457-14.067c.142-.353.375-.645.702-.874s.693-.345,1.1-.345h5.245Z"/><path class="cls-4" d="m1828.524,269.809c0-.548.102-1.068.305-1.563.203-.494.48-.918.834-1.271s.777-.636,1.272-.848c.494-.212,1.023-.318,1.589-.318s1.091.106,1.576.318.91.494,1.271.848c.362.354.649.777.861,1.271.212.495.318,1.016.318,1.563,0,.565-.106,1.091-.318,1.576s-.499.905-.861,1.258c-.361.354-.786.632-1.271.835s-1.011.305-1.576.305-1.095-.102-1.589-.305c-.495-.203-.919-.481-1.272-.835-.354-.353-.631-.772-.834-1.258s-.305-1.011-.305-1.576Z"/><path class="cls-1" d="m1381.422,185.799c-2.333.357-4.439.627-6.322.808-1.883.179-3.588.269-5.112.269s-3.228-.09-5.111-.269c-1.883-.181-3.947-.45-6.188-.808v-69.41c1.972-.447,3.922-.761,5.852-.941,1.927-.179,3.788-.269,5.583-.269,1.702,0,3.542.09,5.515.269,1.971.181,3.901.494,5.784.941v69.41Z"/><path class="cls-1" d="m1421.372,115.044c3.945,0,7.89.336,11.837,1.009,3.945.673,7.51,2.085,10.694,4.237,3.182,2.152,5.784,5.246,7.802,9.281s3.027,9.372,3.027,16.008v40.22c-2.333.448-4.439.74-6.322.875-1.883.134-3.543.201-4.977.201-1.526,0-3.229-.067-5.112-.201-1.883-.135-3.991-.427-6.322-.875v-37.799c0-4.752-.897-8.159-2.69-10.223-1.795-2.062-4.53-3.094-8.206-3.094-.988,0-2.041.09-3.161.269-1.123.181-1.816.359-2.085.538v50.309c-2.333.448-4.439.74-6.322.875-1.883.134-3.544.201-4.977.201-1.526,0-3.229-.067-5.112-.201-1.883-.135-3.991-.427-6.322-.875v-66.047c3.138-1.076,6.949-2.129,11.434-3.161,4.483-1.03,10.088-1.547,16.814-1.547Z"/><path class="cls-1" d="m1489.569,114.774c7.264,0,13.473.854,18.63,2.557,5.156,1.704,9.393,4.103,12.711,7.196,3.317,3.094,5.738,6.839,7.264,11.231,1.524,4.396,2.287,9.282,2.287,14.663,0,5.649-.786,10.761-2.354,15.334-1.57,4.574-4.036,8.475-7.398,11.703s-7.713,5.717-13.048,7.466c-5.336,1.749-11.77,2.623-19.303,2.623-4.395,0-8.319-.157-11.77-.471-3.453-.315-7.062-.74-10.829-1.278v-69.141c3.767-.448,7.756-.875,11.972-1.278,4.214-.403,8.159-.605,11.837-.605Zm-1.076,53.538c.357,0,.828.046,1.412.134.583.091,1.457.135,2.623.135,5.021,0,8.765-1.412,11.232-4.237,2.465-2.825,3.699-7.466,3.699-13.922,0-5.738-1.211-9.932-3.632-12.577-2.421-2.645-5.875-3.969-10.357-3.969-1.076,0-2.064.046-2.959.135-.897.09-1.57.181-2.018.269v34.033Z"/><path class="cls-1" d="m1561.535,185.799c-2.333.357-4.439.627-6.322.808-1.883.179-3.588.269-5.112.269s-3.228-.09-5.111-.269c-1.883-.181-3.947-.45-6.188-.808v-69.41c1.972-.447,3.922-.761,5.852-.941,1.927-.179,3.788-.269,5.583-.269,1.702,0,3.542.09,5.515.269,1.971.181,3.901.494,5.784.941v69.41Z"/><path class="cls-1" d="m1605.654,187.548c-6.457,0-11.951-.965-16.478-2.893-4.53-1.927-8.229-4.55-11.098-7.869-2.871-3.316-4.956-7.217-6.255-11.702-1.301-4.483-1.951-9.282-1.951-14.394,0-4.931.784-9.595,2.354-13.989,1.568-4.394,3.901-8.206,6.995-11.435,3.094-3.228,6.927-5.784,11.501-7.667,4.573-1.883,9.864-2.825,15.873-2.825,3.138,0,6.591.359,10.358,1.076,3.767.719,7.89,1.974,12.375,3.767-.09,1.526-.269,2.96-.538,4.305s-.605,2.714-1.009,4.103c-.404,1.392-.897,2.871-1.48,4.439-.584,1.569-1.278,3.342-2.085,5.313-3.05-1.255-5.875-2.174-8.474-2.758-2.602-.582-4.843-.874-6.726-.874-2.959,0-5.471.449-7.533,1.345-2.064.897-3.722,2.108-4.977,3.632-1.257,1.526-2.175,3.296-2.758,5.313-.584,2.018-.874,4.103-.874,6.255,0,6.009,1.299,10.425,3.901,13.25,2.6,2.824,6.41,4.237,11.434,4.237h2.421v-19.774c2.241-.447,4.237-.761,5.986-.941,1.749-.179,3.43-.269,5.044-.269,3.138,0,6.86.403,11.165,1.21v34.167c-2.602.988-6.234,2.064-10.896,3.229-4.664,1.165-10.089,1.749-16.276,1.749Z"/><path class="cls-1" d="m1638.61,151.498c0-5.47.74-10.47,2.22-14.999,1.479-4.527,3.676-8.407,6.591-11.636,2.913-3.229,6.524-5.717,10.828-7.466,4.305-1.748,9.282-2.623,14.932-2.623,5.738,0,10.761.875,15.065,2.623,4.305,1.749,7.914,4.237,10.829,7.466,2.913,3.229,5.112,7.108,6.591,11.636,1.479,4.529,2.219,9.529,2.219,14.999,0,5.38-.74,10.29-2.219,14.729-1.479,4.439-3.678,8.252-6.591,11.435-2.915,3.184-6.524,5.628-10.829,7.331-4.304,1.702-9.328,2.556-15.065,2.556-5.65,0-10.627-.854-14.932-2.556-4.304-1.703-7.915-4.147-10.828-7.331-2.916-3.183-5.112-6.995-6.591-11.435-1.48-4.438-2.22-9.349-2.22-14.729Zm46.273,0c0-5.738-.965-10.133-2.892-13.183-1.929-3.048-4.866-4.574-8.811-4.574s-6.86,1.526-8.744,4.574c-1.883,3.05-2.825,7.444-2.825,13.183,0,5.649.941,10,2.825,13.048,1.883,3.05,4.796,4.573,8.744,4.573s6.881-1.523,8.811-4.573c1.927-3.048,2.892-7.398,2.892-13.048Z"/><path class="cls-1" d="m1369.844,210.825c.306.598.5,1.175.584,1.73-.584.251-1.182.432-1.793.542-.612.111-1.272.167-1.981.167-1.084,0-2.061-.177-2.929-.531s-1.602-.862-2.2-1.522-1.056-1.463-1.376-2.408c-.32-.944-.479-2.008-.479-3.189,0-1.195.16-2.275.479-3.242.32-.966.778-1.789,1.376-2.471.598-.681,1.328-1.205,2.189-1.574.862-.368,1.828-.552,2.898-.552.792,0,1.473.056,2.043.166.57.111,1.077.244,1.522.396-.028.32-.087.615-.177.886-.091.271-.198.56-.323.865-.208-.069-.41-.132-.605-.188-.194-.056-.403-.104-.625-.146-.223-.042-.469-.073-.74-.094-.271-.021-.581-.031-.928-.031-1.515,0-2.693.514-3.534,1.542-.841,1.029-1.261,2.51-1.261,4.441,0,.987.118,1.842.354,2.564.236.723.57,1.32,1,1.793s.949.827,1.553,1.063c.605.236,1.282.354,2.033.354.584,0,1.112-.049,1.585-.146.472-.097.917-.236,1.334-.417Z"/><path class="cls-1" d="m1377.016,213.265c-.834,0-1.563-.143-2.189-.427-.625-.285-1.147-.678-1.564-1.179-.417-.5-.726-1.091-.928-1.771-.202-.682-.302-1.418-.302-2.21s.101-1.529.302-2.211c.202-.681.511-1.271.928-1.771.417-.501.938-.896,1.564-1.188s1.355-.438,2.189-.438,1.564.146,2.189.438,1.146.688,1.563,1.188c.417.5.726,1.091.928,1.771.202.682.302,1.418.302,2.211s-.101,1.528-.302,2.21c-.202.681-.511,1.271-.928,1.771-.417.501-.938.894-1.563,1.179-.625.284-1.355.427-2.189.427Zm0-1.646c.959,0,1.668-.348,2.127-1.043.458-.694.688-1.661.688-2.897s-.229-2.2-.688-2.888c-.459-.688-1.168-1.032-2.127-1.032s-1.665.344-2.116,1.032c-.452.688-.677,1.65-.677,2.888s.226,2.203.677,2.897c.452.695,1.157,1.043,2.116,1.043Z"/><path class="cls-1" d="m1384.709,202.319c.153-.028.302-.049.448-.062s.295-.021.448-.021.295.008.427.021.274.034.428.062c.042.208.083.482.125.823.042.341.062.629.062.865.125-.25.281-.49.469-.72.188-.229.41-.434.667-.614.257-.181.553-.327.886-.438.333-.11.702-.166,1.105-.166.834,0,1.477.17,1.928.511s.796.816,1.032,1.428c.139-.236.309-.473.511-.709.201-.236.427-.444.678-.625.25-.181.535-.327.855-.438.319-.11.681-.166,1.084-.166,1.237,0,2.137.347,2.7,1.042.563.695.845,1.724.845,3.086v6.817c-.153.027-.327.049-.521.062s-.368.021-.521.021-.323-.007-.511-.021c-.188-.014-.358-.035-.511-.062v-6.213c0-.959-.146-1.679-.438-2.158s-.771-.719-1.438-.719c-.709,0-1.282.257-1.72.771-.438.514-.657,1.271-.657,2.272v6.046c-.153.027-.323.049-.511.062-.188.014-.358.021-.511.021s-.323-.007-.511-.021c-.188-.014-.358-.035-.511-.062v-6.359c0-.931-.139-1.629-.417-2.095-.278-.466-.723-.698-1.334-.698-.348,0-.674.076-.98.229-.306.153-.573.383-.803.688s-.41.691-.542,1.157c-.132.466-.198,1.004-.198,1.615v5.463c-.153.027-.323.049-.511.062s-.358.021-.511.021-.327-.007-.521-.021-.368-.035-.521-.062v-10.695Z"/><path class="cls-1" d="m1402.514,202.319c.153-.028.302-.049.448-.062s.295-.021.448-.021.295.008.427.021.274.034.428.062c.042.208.083.482.125.823.042.341.062.629.062.865.125-.25.281-.49.469-.72.188-.229.41-.434.667-.614.257-.181.553-.327.886-.438.333-.11.702-.166,1.105-.166.834,0,1.477.17,1.928.511s.796.816,1.032,1.428c.139-.236.309-.473.511-.709.201-.236.427-.444.678-.625.25-.181.535-.327.855-.438.319-.11.681-.166,1.084-.166,1.237,0,2.137.347,2.7,1.042.563.695.845,1.724.845,3.086v6.817c-.153.027-.327.049-.521.062s-.368.021-.521.021-.323-.007-.511-.021c-.188-.014-.358-.035-.511-.062v-6.213c0-.959-.146-1.679-.438-2.158s-.771-.719-1.438-.719c-.709,0-1.282.257-1.72.771-.438.514-.657,1.271-.657,2.272v6.046c-.153.027-.323.049-.511.062-.188.014-.358.021-.511.021s-.323-.007-.511-.021c-.188-.014-.358-.035-.511-.062v-6.359c0-.931-.139-1.629-.417-2.095-.278-.466-.723-.698-1.334-.698-.348,0-.674.076-.98.229-.306.153-.573.383-.803.688s-.41.691-.542,1.157c-.132.466-.198,1.004-.198,1.615v5.463c-.153.027-.323.049-.511.062s-.358.021-.511.021-.327-.007-.521-.021-.368-.035-.521-.062v-10.695Z"/><path class="cls-1" d="m1420.194,202.319c.153-.028.326-.049.521-.062s.361-.021.5-.021c.153,0,.326.008.521.021s.368.034.521.062v5.858c0,.667.062,1.22.188,1.657.125.438.313.782.563,1.032s.556.424.917.521c.361.097.778.146,1.251.146.709,0,1.313-.076,1.814-.229v-8.985c.152-.028.323-.049.511-.062.188-.014.357-.021.511-.021s.323.008.511.021.358.034.511.062v10.361c-.487.14-1.067.271-1.741.396-.674.125-1.373.188-2.096.188-.681,0-1.324-.06-1.928-.177-.604-.118-1.136-.358-1.595-.72-.458-.361-.82-.868-1.084-1.521-.264-.653-.396-1.516-.396-2.586v-5.941Z"/><path class="cls-1" d="m1432.286,202.319c.153-.028.302-.049.448-.062s.295-.021.448-.021.295.008.427.021.274.034.428.062c.042.208.083.489.125.844.042.354.062.65.062.887.139-.236.316-.473.532-.709.215-.236.462-.448.74-.636.278-.188.597-.341.959-.459.361-.118.757-.177,1.188-.177,1.223,0,2.126.351,2.71,1.053.584.702.876,1.74.876,3.116v6.776c-.153.027-.327.049-.521.062s-.368.021-.521.021-.323-.007-.511-.021c-.188-.014-.358-.035-.511-.062v-6.213c0-.987-.153-1.713-.459-2.179s-.792-.698-1.459-.698c-.389,0-.758.069-1.105.208-.348.14-.653.354-.917.646s-.476.671-.636,1.136c-.16.467-.24,1.025-.24,1.679v5.421c-.153.027-.323.049-.511.062s-.358.021-.511.021-.327-.007-.521-.021-.368-.035-.521-.062v-10.695Z"/><path class="cls-1" d="m1444.962,203.945h-1.355c-.028-.111-.049-.24-.062-.386s-.021-.288-.021-.428c0-.139.007-.281.021-.427.014-.146.035-.274.062-.386h3.378v10.695c-.153.027-.323.049-.511.062-.188.014-.358.021-.511.021-.139,0-.302-.007-.49-.021s-.358-.035-.511-.062v-9.069Zm-.458-3.982c-.028-.167-.045-.347-.052-.542-.007-.194-.011-.368-.011-.521,0-.152.003-.326.011-.521.007-.194.024-.368.052-.521.18-.027.375-.049.583-.062s.389-.021.542-.021.333.007.542.021.396.035.563.062c.028.153.045.327.052.521.007.194.01.368.01.521,0,.153-.003.327-.01.521-.007.195-.024.375-.052.542-.167.028-.351.049-.552.062-.202.015-.379.021-.532.021-.167,0-.354-.007-.563-.021-.208-.014-.403-.034-.583-.062Z"/><path class="cls-1" d="m1450.737,203.966h-1.626l-.083-.292,3.586-4.003h.167v2.648h2.71c.055.236.083.5.083.792,0,.153-.007.299-.021.438-.014.14-.035.278-.062.417h-2.71v4.879c0,.584.024,1.05.073,1.397.049.347.132.614.25.802.118.188.278.313.479.376.201.062.455.094.761.094.236,0,.459-.018.667-.053.208-.034.396-.072.563-.114.097.278.157.562.177.854.021.292.031.55.031.771-.278.069-.57.122-.875.156-.306.035-.633.053-.98.053-1,0-1.783-.243-2.345-.729-.563-.486-.845-1.293-.845-2.419v-6.067Z"/><path class="cls-1" d="m1461.453,213.035c-.111,0-.226.004-.344.011-.118.007-.233.011-.344.011-.139,0-.285-.004-.438-.011s-.278-.018-.375-.031l-3.544-10.695c.181-.028.368-.045.563-.053.194-.007.375-.01.542-.01.181,0,.382.003.604.01.222.008.41.024.563.053l2.961,9.944,3.064-9.944c.292-.042.632-.062,1.022-.062.152,0,.326.003.521.01.194.008.389.024.584.053l-4.149,12.863c-.194.57-.396,1.05-.604,1.438-.208.39-.445.702-.709.938s-.56.403-.886.501c-.327.097-.706.146-1.136.146-.32,0-.636-.024-.949-.073-.313-.049-.587-.107-.824-.177,0-.32.028-.604.083-.855.055-.25.139-.5.25-.75.125.042.295.087.511.136.215.048.448.072.698.072.181,0,.351-.018.511-.052.16-.035.309-.104.448-.208.139-.104.268-.254.386-.448.118-.195.232-.459.344-.793l.646-2.022Z"/><path class="cls-1" d="m1473.566,210.742c.458.167.938.312,1.438.438s1.112.188,1.835.188c1.139,0,1.991-.232,2.554-.698s.845-1.095.845-1.887c0-.389-.06-.723-.177-1.001-.119-.277-.295-.518-.532-.719-.237-.201-.532-.386-.886-.553s-.768-.348-1.24-.542l-1.188-.479c-.403-.167-.771-.351-1.105-.553-.334-.201-.623-.448-.865-.74-.244-.292-.435-.629-.574-1.011-.139-.383-.208-.838-.208-1.366,0-1.265.431-2.255,1.293-2.971.861-.716,2.071-1.073,3.627-1.073.667,0,1.3.056,1.897.166.598.111,1.126.251,1.584.417-.07.584-.223,1.161-.458,1.73-.375-.139-.81-.264-1.303-.375-.494-.111-1.053-.167-1.678-.167-.876,0-1.55.178-2.022.532-.473.354-.709.886-.709,1.595,0,.292.059.553.177.781.118.229.274.432.469.605.194.174.424.33.688.469.264.139.542.265.834.375l1.167.459c.556.223,1.049.455,1.48.698.431.243.799.528,1.105.854.306.327.539.713.698,1.157.16.445.24.967.24,1.564,0,1.432-.494,2.561-1.48,3.388-.987.827-2.37,1.24-4.149,1.24-.431,0-.82-.014-1.167-.042-.348-.027-.67-.069-.969-.125-.299-.056-.587-.125-.865-.208-.278-.083-.563-.174-.855-.271.028-.306.09-.618.188-.938.097-.32.202-.633.313-.938Z"/><path class="cls-1" d="m1486.681,208.178c.027,1.167.33,2.022.907,2.564.577.542,1.428.813,2.554.813.987,0,1.925-.174,2.814-.521.111.208.201.462.271.761.069.299.111.595.125.886-.458.195-.962.341-1.511.438-.549.097-1.157.146-1.825.146-.973,0-1.807-.136-2.501-.406-.695-.271-1.269-.653-1.72-1.146s-.782-1.077-.99-1.752c-.208-.674-.313-1.414-.313-2.22,0-.793.101-1.533.302-2.221.202-.688.511-1.285.928-1.793.417-.508.942-.91,1.574-1.209s1.379-.448,2.241-.448c.737,0,1.383.125,1.939.375.556.25,1.022.594,1.397,1.032.375.438.66.959.855,1.563.194.604.292,1.261.292,1.97,0,.195-.007.4-.021.615-.014.216-.028.399-.042.553h-7.276Zm5.295-1.543c0-.389-.052-.761-.156-1.115-.104-.354-.257-.664-.458-.928-.202-.264-.459-.477-.771-.636-.313-.16-.685-.24-1.116-.24-.848,0-1.498.258-1.949.771-.452.515-.727,1.23-.824,2.147h5.275Z"/><path class="cls-1" d="m1496.73,202.319c.153-.028.299-.049.438-.062.139-.014.285-.021.438-.021s.306.008.459.021c.153.014.292.034.417.062.042.208.083.482.125.823.042.341.062.629.062.865.292-.473.678-.883,1.157-1.23.479-.347,1.094-.521,1.845-.521.111,0,.226.003.344.01.118.008.219.018.302.031.028.125.049.258.062.396s.021.285.021.438c0,.167-.01.341-.031.521s-.045.354-.073.521c-.112-.028-.226-.042-.344-.042h-.281c-.375,0-.733.052-1.074.156-.341.104-.646.289-.917.553-.271.265-.487.625-.646,1.084s-.24,1.05-.24,1.772v5.316c-.153.027-.323.049-.511.062s-.358.021-.511.021-.323-.007-.511-.021c-.188-.014-.365-.035-.532-.062v-10.695Z"/><path class="cls-1" d="m1503.172,202.319c.194-.028.396-.049.604-.062s.396-.021.563-.021c.181,0,.378.008.594.021.215.014.399.034.552.062l2.919,8.819,2.94-8.819c.153-.028.326-.049.521-.062s.382-.021.563-.021c.153,0,.327.008.521.021.194.014.389.034.583.062l-4.17,10.695c-.181.027-.361.049-.542.062s-.348.021-.5.021c-.153,0-.316-.007-.49-.021s-.344-.035-.511-.062l-4.149-10.695Z"/><path class="cls-1" d="m1516.182,203.945h-1.355c-.028-.111-.049-.24-.062-.386s-.021-.288-.021-.428c0-.139.007-.281.021-.427.014-.146.035-.274.062-.386h3.378v10.695c-.153.027-.323.049-.511.062-.188.014-.358.021-.511.021-.139,0-.302-.007-.49-.021s-.358-.035-.511-.062v-9.069Zm-.458-3.982c-.028-.167-.045-.347-.052-.542-.007-.194-.011-.368-.011-.521,0-.152.003-.326.011-.521.007-.194.024-.368.052-.521.18-.027.375-.049.583-.062s.389-.021.542-.021.333.007.542.021.396.035.563.062c.028.153.045.327.052.521.007.194.01.368.01.521,0,.153-.003.327-.01.521-.007.195-.024.375-.052.542-.167.028-.351.049-.552.062-.202.015-.379.021-.532.021-.167,0-.354-.007-.563-.021-.208-.014-.403-.034-.583-.062Z"/><path class="cls-1" d="m1528.691,211.159c.111.194.208.438.292.729s.132.591.146.896c-.82.319-1.759.479-2.815.479-1.779,0-3.121-.504-4.024-1.512-.903-1.007-1.355-2.366-1.355-4.075,0-.793.111-1.529.333-2.211.222-.681.553-1.271.99-1.771.438-.501.983-.896,1.637-1.188s1.411-.438,2.272-.438c.584,0,1.098.034,1.543.104.445.07.869.181,1.272.334,0,.236-.031.511-.094.823s-.15.588-.261.823c-.681-.235-1.459-.354-2.335-.354-1.071,0-1.87.354-2.398,1.062s-.792,1.647-.792,2.815c0,1.334.298,2.311.896,2.929.597.619,1.417.928,2.46.928.417,0,.803-.027,1.157-.083s.712-.153,1.074-.292Z"/><path class="cls-1" d="m1532.757,208.178c.027,1.167.33,2.022.907,2.564.577.542,1.428.813,2.554.813.987,0,1.925-.174,2.814-.521.111.208.201.462.271.761.069.299.111.595.125.886-.458.195-.962.341-1.511.438-.549.097-1.157.146-1.825.146-.973,0-1.807-.136-2.501-.406-.695-.271-1.269-.653-1.72-1.146s-.782-1.077-.99-1.752c-.208-.674-.313-1.414-.313-2.22,0-.793.101-1.533.302-2.221.202-.688.511-1.285.928-1.793.417-.508.942-.91,1.574-1.209s1.379-.448,2.241-.448c.737,0,1.383.125,1.939.375.556.25,1.022.594,1.397,1.032.375.438.66.959.855,1.563.194.604.292,1.261.292,1.97,0,.195-.007.4-.021.615-.014.216-.028.399-.042.553h-7.276Zm5.295-1.543c0-.389-.052-.761-.156-1.115-.104-.354-.257-.664-.458-.928-.202-.264-.459-.477-.771-.636-.313-.16-.685-.24-1.116-.24-.848,0-1.498.258-1.949.771-.452.515-.727,1.23-.824,2.147h5.275Z"/><path class="cls-1" d="m1542.618,211.075c.375.153.789.275,1.24.365.452.091.9.136,1.345.136.32,0,.625-.034.917-.104.292-.069.545-.174.761-.312.215-.139.389-.31.521-.511.132-.201.198-.428.198-.678,0-.278-.052-.507-.157-.688-.104-.18-.243-.333-.417-.458s-.375-.232-.604-.323c-.229-.091-.476-.178-.74-.261l-.729-.271c-.89-.333-1.536-.708-1.939-1.125-.403-.417-.604-.98-.604-1.689,0-.944.336-1.695,1.011-2.252.674-.556,1.664-.833,2.971-.833.542,0,1.074.052,1.595.156.521.104.976.226,1.365.364-.028.278-.08.557-.156.834-.077.278-.17.535-.281.771-.306-.111-.671-.219-1.095-.323-.424-.104-.879-.156-1.366-.156-.514,0-.969.091-1.366.271-.396.181-.594.5-.594.959,0,.236.048.438.146.604s.229.31.396.428c.167.118.357.219.573.302.215.084.448.167.698.25l.917.313c.333.111.649.243.949.396.299.153.556.344.771.573.215.229.389.508.521.834.132.327.198.72.198,1.179,0,.514-.104.983-.313,1.407s-.504.785-.886,1.084c-.383.299-.845.531-1.387.698s-1.14.25-1.793.25c-.667,0-1.251-.045-1.751-.136-.5-.09-.966-.211-1.396-.364.027-.278.086-.56.177-.845.09-.284.191-.566.303-.845Z"/><path class="cls-1" d="m1562.883,205.968c0-.82-.208-1.39-.625-1.71-.417-.319-1.021-.479-1.813-.479-.487,0-.942.039-1.366.115-.424.076-.838.177-1.241.302-.264-.459-.396-1.008-.396-1.646.472-.153.994-.271,1.563-.354.57-.084,1.119-.125,1.647-.125,1.39,0,2.446.315,3.169.948.723.633,1.084,1.644,1.084,3.033v6.692c-.487.112-1.077.227-1.772.345-.695.117-1.404.177-2.127.177-.681,0-1.296-.062-1.845-.188-.549-.125-1.015-.326-1.397-.604-.383-.278-.678-.633-.886-1.063s-.312-.952-.312-1.563c0-.598.121-1.122.365-1.574.243-.451.573-.827.99-1.126s.896-.521,1.438-.667c.542-.146,1.112-.219,1.71-.219.444,0,.809.01,1.094.031.285.021.524.045.719.073v-.396Zm0,2.022c-.208-.028-.473-.056-.792-.084-.32-.027-.591-.041-.813-.041-.862,0-1.519.159-1.971.479-.452.319-.677.806-.677,1.459,0,.417.076.744.229.98s.344.417.574.542c.229.125.482.201.761.229.278.027.542.041.792.041.319,0,.649-.017.99-.052.34-.034.643-.087.907-.156v-3.398Z"/><path class="cls-1" d="m1568.012,202.319c.153-.028.302-.049.448-.062s.295-.021.448-.021.295.008.427.021.274.034.428.062c.042.208.083.489.125.844.042.354.062.65.062.887.139-.236.316-.473.532-.709.215-.236.462-.448.74-.636.278-.188.597-.341.959-.459.361-.118.757-.177,1.188-.177,1.223,0,2.126.351,2.71,1.053.584.702.876,1.74.876,3.116v6.776c-.153.027-.327.049-.521.062s-.368.021-.521.021-.323-.007-.511-.021c-.188-.014-.358-.035-.511-.062v-6.213c0-.987-.153-1.713-.459-2.179s-.792-.698-1.459-.698c-.389,0-.758.069-1.105.208-.348.14-.653.354-.917.646s-.476.671-.636,1.136c-.16.467-.24,1.025-.24,1.679v5.421c-.153.027-.323.049-.511.062s-.358.021-.511.021-.327-.007-.521-.021-.368-.035-.521-.062v-10.695Z"/><path class="cls-1" d="m1586.922,197.732c.153-.028.326-.049.521-.062s.361-.021.5-.021c.153,0,.323.008.511.021.188.014.358.034.511.062v14.99c-.528.153-1.119.281-1.772.386s-1.383.156-2.189.156c-.751,0-1.463-.094-2.137-.281-.674-.188-1.261-.497-1.762-.928s-.896-.987-1.188-1.668-.438-1.522-.438-2.522c0-.862.128-1.647.386-2.356s.622-1.316,1.095-1.824c.472-.507,1.039-.899,1.699-1.178s1.393-.417,2.2-.417c.361,0,.726.028,1.094.083.368.056.691.125.97.209v-4.649Zm0,6.4c-.278-.111-.577-.194-.896-.25-.32-.056-.667-.083-1.042-.083-.57,0-1.063.104-1.48.312-.417.208-.761.493-1.032.854s-.473.789-.605,1.282c-.132.493-.198,1.032-.198,1.616.014,1.32.326,2.266.938,2.835.611.57,1.445.855,2.502.855.361,0,.695-.018,1.001-.053.305-.034.577-.087.813-.156v-7.214Z"/><path class="cls-1" d="m1597.388,198.024c.167-.028.34-.049.521-.062s.361-.021.542-.021.361.008.542.021.354.034.521.062v6.171h6.38v-6.171c.153-.028.319-.049.5-.062s.361-.021.542-.021c.18,0,.365.008.552.021s.365.034.532.062v14.99c-.153.027-.32.049-.5.062s-.368.021-.563.021c-.181,0-.365-.007-.552-.021s-.358-.035-.511-.062v-6.942h-6.38v6.942c-.167.027-.337.049-.511.062-.174.014-.358.021-.553.021-.181,0-.365-.007-.552-.021-.188-.014-.358-.035-.511-.062v-14.99Z"/><path class="cls-1" d="m1613.066,208.178c.027,1.167.33,2.022.907,2.564.577.542,1.428.813,2.554.813.987,0,1.925-.174,2.814-.521.111.208.201.462.271.761.069.299.111.595.125.886-.458.195-.962.341-1.511.438-.549.097-1.157.146-1.825.146-.973,0-1.807-.136-2.501-.406-.695-.271-1.269-.653-1.72-1.146s-.782-1.077-.99-1.752c-.208-.674-.313-1.414-.313-2.22,0-.793.101-1.533.302-2.221.202-.688.511-1.285.928-1.793.417-.508.942-.91,1.574-1.209s1.379-.448,2.241-.448c.737,0,1.383.125,1.939.375.556.25,1.022.594,1.397,1.032.375.438.66.959.855,1.563.194.604.292,1.261.292,1.97,0,.195-.007.4-.021.615-.014.216-.028.399-.042.553h-7.276Zm5.295-1.543c0-.389-.052-.761-.156-1.115-.104-.354-.257-.664-.458-.928-.202-.264-.459-.477-.771-.636-.313-.16-.685-.24-1.116-.24-.848,0-1.498.258-1.949.771-.452.515-.727,1.23-.824,2.147h5.275Z"/><path class="cls-1" d="m1628.766,205.968c0-.82-.208-1.39-.625-1.71-.417-.319-1.021-.479-1.813-.479-.487,0-.942.039-1.366.115-.424.076-.838.177-1.241.302-.264-.459-.396-1.008-.396-1.646.472-.153.994-.271,1.563-.354.57-.084,1.119-.125,1.647-.125,1.39,0,2.446.315,3.169.948.723.633,1.084,1.644,1.084,3.033v6.692c-.487.112-1.077.227-1.772.345-.695.117-1.404.177-2.127.177-.681,0-1.296-.062-1.845-.188-.549-.125-1.015-.326-1.397-.604-.383-.278-.678-.633-.886-1.063s-.312-.952-.312-1.563c0-.598.121-1.122.365-1.574.243-.451.573-.827.99-1.126s.896-.521,1.438-.667c.542-.146,1.112-.219,1.71-.219.444,0,.809.01,1.094.031.285.021.524.045.719.073v-.396Zm0,2.022c-.208-.028-.473-.056-.792-.084-.32-.027-.591-.041-.813-.041-.862,0-1.519.159-1.971.479-.452.319-.677.806-.677,1.459,0,.417.076.744.229.98s.344.417.574.542c.229.125.482.201.761.229.278.027.542.041.792.041.319,0,.649-.017.99-.052.34-.034.643-.087.907-.156v-3.398Z"/><path class="cls-1" d="m1633.853,197.732c.152-.028.323-.049.511-.062.188-.014.357-.021.511-.021s.323.008.511.021.357.034.511.062v12.051c0,.389.035.695.104.917.069.223.163.394.281.511.118.118.257.195.417.229.16.035.33.052.511.052.125,0,.268-.007.427-.021s.295-.034.407-.062c.125.486.188,1.015.188,1.585-.195.069-.431.114-.708.135-.278.021-.536.031-.771.031-.403,0-.779-.049-1.126-.146-.348-.097-.653-.257-.917-.479s-.473-.521-.625-.896-.229-.841-.229-1.396v-12.51Z"/><path class="cls-1" d="m1640.503,203.966h-1.626l-.083-.292,3.586-4.003h.167v2.648h2.71c.055.236.083.5.083.792,0,.153-.007.299-.021.438-.014.14-.035.278-.062.417h-2.71v4.879c0,.584.024,1.05.073,1.397.049.347.132.614.25.802.118.188.278.313.479.376.201.062.455.094.761.094.236,0,.459-.018.667-.053.208-.034.396-.072.563-.114.097.278.157.562.177.854.021.292.031.55.031.771-.278.069-.57.122-.875.156-.306.035-.633.053-.98.053-1,0-1.783-.243-2.345-.729-.563-.486-.845-1.293-.845-2.419v-6.067Z"/><path class="cls-1" d="m1647.55,197.732c.153-.028.323-.049.511-.062.188-.014.358-.021.511-.021s.327.008.521.021c.194.014.368.034.521.062v6.213c.125-.194.282-.403.469-.626.188-.222.417-.427.688-.614s.584-.341.938-.459.747-.177,1.178-.177c1.223,0,2.13.351,2.721,1.053s.886,1.74.886,3.116v6.776c-.153.027-.323.049-.511.062s-.358.021-.511.021-.323-.007-.511-.021c-.188-.014-.358-.035-.511-.062v-6.213c0-.987-.164-1.713-.49-2.179s-.823-.698-1.491-.698c-.375,0-.737.065-1.084.197-.348.133-.654.341-.917.626-.264.285-.473.656-.625,1.115s-.229,1.015-.229,1.668v5.483c-.153.027-.327.049-.521.062-.195.014-.369.021-.521.021-.139,0-.306-.007-.5-.021-.195-.014-.369-.035-.521-.062v-15.282Z"/><path class="cls-1" d="m1664.73,198.024c.167-.028.34-.049.521-.062s.361-.021.542-.021.361.008.542.021.354.034.521.062v6.171h6.38v-6.171c.153-.028.319-.049.5-.062s.361-.021.542-.021c.18,0,.365.008.552.021s.365.034.532.062v14.99c-.153.027-.32.049-.5.062s-.368.021-.563.021c-.181,0-.365-.007-.552-.021s-.358-.035-.511-.062v-6.942h-6.38v6.942c-.167.027-.337.049-.511.062-.174.014-.358.021-.553.021-.181,0-.365-.007-.552-.021-.188-.014-.358-.035-.511-.062v-14.99Z"/><path class="cls-1" d="m1678.74,202.319c.153-.028.326-.049.521-.062s.361-.021.5-.021c.153,0,.326.008.521.021s.368.034.521.062v5.858c0,.667.062,1.22.188,1.657.125.438.313.782.563,1.032s.556.424.917.521c.361.097.778.146,1.251.146.709,0,1.313-.076,1.814-.229v-8.985c.152-.028.323-.049.511-.062.188-.014.357-.021.511-.021s.323.008.511.021.358.034.511.062v10.361c-.487.14-1.067.271-1.741.396-.674.125-1.373.188-2.096.188-.681,0-1.324-.06-1.928-.177-.604-.118-1.136-.358-1.595-.72-.458-.361-.82-.868-1.084-1.521-.264-.653-.396-1.516-.396-2.586v-5.941Z"/><path class="cls-1" d="m1690.811,197.732c.153-.028.323-.049.511-.062.188-.014.358-.021.511-.021s.327.008.521.021c.194.014.368.034.521.062v5.879c.25-.417.639-.778,1.168-1.084.528-.306,1.167-.458,1.918-.458.639,0,1.23.104,1.772.312.542.208,1.008.531,1.397.97.389.438.691.993.907,1.667.215.675.323,1.471.323,2.388,0,1.835-.518,3.271-1.553,4.306s-2.526,1.553-4.472,1.553c-.612,0-1.24-.06-1.887-.177-.646-.118-1.192-.254-1.637-.407v-14.948Zm2.064,13.552c.25.083.518.143.803.177.285.035.581.053.886.053.514,0,.99-.08,1.428-.24.438-.159.816-.402,1.136-.729.32-.326.573-.743.761-1.251.188-.507.281-1.108.281-1.804,0-1.153-.202-2.05-.604-2.689-.403-.639-1.071-.959-2.001-.959-.32,0-.636.053-.949.156-.313.104-.602.271-.865.501-.264.229-.477.535-.636.917-.16.383-.24.845-.24,1.387v4.482Z"/></svg>